# xmcd
#
# Track frame offsets:
#	150
#	18160
#	31410
#	42912
#	61192
#	74577
#	89365
#	101780
#	117580
#	134542
#	147645
#	162987
#	177675
#	193210
#	207780
#	223510
#	237325
#	248387
#	262580
#	281750
#	301750
#	320575
#
# Disc length: 4508
#
# Revision: 1
# Processed by: cddbd v1.5.1PL0 Copyright (c) Steve Scherf et al.
# Submitted via: VisiTrax 2.9.5.180 - For more info visit www.synapsa.com
# Normalized: r0:DSETVAR1
#
DISCID=4b119a16
DTITLE=Various Artist - CDX 144 September 1996
DYEAR=1996
DGENRE=
TTITLE0=Carl Mack Parker - Better love next time
TTITLE1=Clay Walker - Bury the shovel
TTITLE2=BR5-49 - Cherokee Boogie
TTITLE3=Stephanie Bentley - Dead ringer
TTITLE4=Don Cox - Gentlemen! Start your engines
TTITLE5=Neal McCoy - Going, going gone
TTITLE6=Mark Chesnutt - It's a little too late
TTITLE7=Dolly Parton - Just when I needed you most
TTITLE8=Frazier River - Last request
TTITLE9=Mary Chapin Carpenter - Let me into your heart
TTITLE10=Beach Boys/Doug Supernaw - Long tall texan
TTITLE11=Burnin' Daylight - Love worth fighting for
TTITLE12=Jim Austin - My hat's off to him
TTITLE13=Terri Clark - Poor, poor pitiful me
TTITLE14=Charlie Major - Tell me something I don't know
TTITLE15=Reba McEntire - The fear of being alone
TTITLE16=Randy Travis - Would I
TTITLE17=Jerry Adams - You 101
TTITLE18=Ty Herndon - Don't tell mama
TTITLE19=Ty Herndon - I know how the river feels
TTITLE20=Ty Herndon - Returning the faith
TTITLE21=Ty Herndon - She wants to be wanted again
EXTD=
EXTT0=
EXTT1=
EXTT2=
EXTT3=
EXTT4=
EXTT5=
EXTT6=
EXTT7=
EXTT8=
EXTT9=
EXTT10=
EXTT11=
EXTT12=
EXTT13=
EXTT14=
EXTT15=
EXTT16=
EXTT17=
EXTT18=
EXTT19=
EXTT20=
EXTT21=
PLAYORDER=
